<svg xmlns="http://www.w3.org/2000/svg" viewBox="0 0 520 520">
  <defs>
    <linearGradient id="g" x1="0" y1="0" x2="1" y2="1">
      <stop offset="0" stop-color="#10b981"/>
      <stop offset="1" stop-color="#0ea5e9"/>
    </linearGradient>
    <filter id="s" x="-20%" y="-20%" width="140%" height="140%">
      <feDropShadow dx="0" dy="14" stdDeviation="18" flood-color="#0f172a" flood-opacity="0.16"/>
    </filter>
  </defs>

  <rect width="520" height="520" rx="28" fill="#f8fafc"/>
  <path d="M80 160c60-70 110-90 190-90 110 0 170 60 180 150 10 90-50 180-150 210-100 30-220-10-250-110-20-70 10-130 30-160z"
    fill="#ecfeff" opacity="0.9"/>

  <g filter="url(#s)">
    <rect x="88" y="86" width="344" height="344" rx="28" fill="#ffffff" stroke="#e2e8f0" stroke-width="2"/>
    <path d="M120 210l80-70 65 45 70-60 70 75v140H120z" fill="url(#g)" opacity="0.12"/>
    <path d="M120 300c50-70 125-100 210-90 65 8 95 25 114 44" fill="none" stroke="#10b981" stroke-width="10" stroke-linecap="round" opacity="0.35"/>
  </g>

  <!-- Pins -->
  <g>
    <path d="M175 260c0-30 24-54 54-54s54 24 54 54c0 44-54 98-54 98s-54-54-54-98z" fill="url(#g)"/>
    <circle cx="229" cy="260" r="18" fill="#ffffff" opacity="0.95"/>
    <circle cx="229" cy="260" r="9" fill="#0f172a" opacity="0.25"/>
  </g>

  <g>
    <path d="M305 210c0-22 18-40 40-40s40 18 40 40c0 31-40 68-40 68s-40-37-40-68z" fill="#0ea5e9" opacity="0.85"/>
    <circle cx="345" cy="210" r="14" fill="#ffffff" opacity="0.95"/>
  </g>

  <g>
    <path d="M125 210c0-18 14-32 32-32s32 14 32 32c0 25-32 56-32 56s-32-31-32-56z" fill="#10b981" opacity="0.85"/>
    <circle cx="157" cy="210" r="12" fill="#ffffff" opacity="0.95"/>
  </g>
</svg>

